STARTFONT 2.1
FONT -FontForge-DigitalDisco-Thin-I-Normal--16-160-72-72-P-71-ISO10646-1
SIZE 16 72 72
FONTBOUNDINGBOX 12 14 -1 -3
COMMENT "Generated by fontforge, http://fontforge.sourceforge.net"
COMMENT "jeti"
STARTPROPERTIES 39
FOUNDRY "FontForge"
FAMILY_NAME "DigitalDisco"
WEIGHT_NAME "Thin"
SLANT "I"
SETWIDTH_NAME "Normal"
ADD_STYLE_NAME ""
PIXEL_SIZE 16
POINT_SIZE 160
RESOLUTION_X 72
RESOLUTION_Y 72
SPACING "P"
AVERAGE_WIDTH 71
CHARSET_REGISTRY "ISO10646"
CHARSET_ENCODING "1"
FONTNAME_REGISTRY ""
CHARSET_COLLECTIONS "ISO10646-1"
FONT_NAME "DigitalDisco-Thin"
FACE_NAME "DigitalDisco-Thin"
COPYRIGHT "jeti"
FONT_VERSION "001.000"
FONT_ASCENT 12
FONT_DESCENT 4
UNDERLINE_POSITION -2
UNDERLINE_THICKNESS 1
X_HEIGHT 7
CAP_HEIGHT 9
RAW_ASCENT 750
RAW_DESCENT 250
NORM_SPACE 5
RELATIVE_WEIGHT 10
RELATIVE_SETWIDTH 50
SUPERSCRIPT_X 0
SUPERSCRIPT_Y 7
SUPERSCRIPT_SIZE 11
SUBSCRIPT_X 0
SUBSCRIPT_Y 2
SUBSCRIPT_SIZE 11
AVG_LOWERCASE_WIDTH 78
AVG_UPPERCASE_WIDTH 84
ENDPROPERTIES
CHARS 95
STARTCHAR space
ENCODING 32
SWIDTH 312 0
DWIDTH 5 0
BBX 1 1 0 0
BITMAP
00
ENDCHAR
STARTCHAR exclam
ENCODING 33
SWIDTH 125 0
DWIDTH 2 0
BBX 1 10 0 0
BITMAP
80
80
80
80
80
80
80
80
00
80
ENDCHAR
STARTCHAR quotedbl
ENCODING 34
SWIDTH 250 0
DWIDTH 4 0
BBX 3 3 0 7
BITMAP
A0
A0
A0
ENDCHAR
STARTCHAR numbersign
ENCODING 35
SWIDTH 625 0
DWIDTH 10 0
BBX 9 10 0 0
BITMAP
1100
1100
1100
7F80
2200
2200
FF00
4400
4400
4400
ENDCHAR
STARTCHAR dollar
ENCODING 36
SWIDTH 437 0
DWIDTH 7 0
BBX 6 12 0 -2
BITMAP
20
20
78
A0
A0
78
24
24
24
F8
20
20
ENDCHAR
STARTCHAR percent
ENCODING 37
SWIDTH 625 0
DWIDTH 10 0
BBX 9 10 0 0
BITMAP
6200
9200
9400
6400
0800
0800
1300
1480
2480
2300
ENDCHAR
STARTCHAR ampersand
ENCODING 38
SWIDTH 625 0
DWIDTH 10 0
BBX 9 11 0 0
BITMAP
1C00
2000
2000
3000
4880
8500
8200
8100
8100
4300
3C80
ENDCHAR
STARTCHAR quotesingle
ENCODING 39
SWIDTH 125 0
DWIDTH 2 0
BBX 1 3 0 7
BITMAP
80
80
80
ENDCHAR
STARTCHAR parenleft
ENCODING 40
SWIDTH 187 0
DWIDTH 3 0
BBX 2 12 0 -2
BITMAP
40
80
80
80
80
80
80
80
80
80
80
40
ENDCHAR
STARTCHAR parenright
ENCODING 41
SWIDTH 187 0
DWIDTH 3 0
BBX 2 12 0 -2
BITMAP
80
40
40
40
40
40
40
40
40
40
40
80
ENDCHAR
STARTCHAR asterisk
ENCODING 42
SWIDTH 312 0
DWIDTH 5 0
BBX 4 4 0 4
BITMAP
60
F0
60
90
ENDCHAR
STARTCHAR plus
ENCODING 43
SWIDTH 375 0
DWIDTH 6 0
BBX 5 5 0 1
BITMAP
20
20
F8
20
20
ENDCHAR
STARTCHAR comma
ENCODING 44
SWIDTH 187 0
DWIDTH 3 0
BBX 2 3 0 -1
BITMAP
40
40
80
ENDCHAR
STARTCHAR hyphen
ENCODING 45
SWIDTH 312 0
DWIDTH 5 0
BBX 4 1 0 3
BITMAP
F0
ENDCHAR
STARTCHAR period
ENCODING 46
SWIDTH 125 0
DWIDTH 2 0
BBX 1 1 0 0
BITMAP
80
ENDCHAR
STARTCHAR slash
ENCODING 47
SWIDTH 250 0
DWIDTH 4 0
BBX 3 10 0 0
BITMAP
20
20
20
40
40
40
40
80
80
80
ENDCHAR
STARTCHAR zero
ENCODING 48
SWIDTH 562 0
DWIDTH 9 0
BBX 8 10 0 0
BITMAP
3C
42
83
85
89
91
A1
C1
42
3C
ENDCHAR
STARTCHAR one
ENCODING 49
SWIDTH 187 0
DWIDTH 3 0
BBX 2 10 0 0
BITMAP
80
40
40
40
40
40
40
40
40
40
ENDCHAR
STARTCHAR two
ENCODING 50
SWIDTH 500 0
DWIDTH 8 0
BBX 7 10 0 0
BITMAP
38
44
82
02
04
08
10
20
40
FE
ENDCHAR
STARTCHAR three
ENCODING 51
SWIDTH 562 0
DWIDTH 9 0
BBX 8 10 0 0
BITMAP
7E
02
04
1E
01
01
81
81
42
3C
ENDCHAR
STARTCHAR four
ENCODING 52
SWIDTH 562 0
DWIDTH 9 0
BBX 8 10 0 0
BITMAP
80
80
82
82
82
82
42
3F
02
02
ENDCHAR
STARTCHAR five
ENCODING 53
SWIDTH 500 0
DWIDTH 8 0
BBX 7 10 0 0
BITMAP
7C
40
40
78
04
02
02
02
84
78
ENDCHAR
STARTCHAR six
ENCODING 54
SWIDTH 562 0
DWIDTH 9 0
BBX 8 10 0 0
BITMAP
30
40
40
BC
C2
81
81
81
42
3C
ENDCHAR
STARTCHAR seven
ENCODING 55
SWIDTH 437 0
DWIDTH 7 0
BBX 6 10 0 0
BITMAP
FC
04
04
08
08
10
10
20
20
20
ENDCHAR
STARTCHAR eight
ENCODING 56
SWIDTH 562 0
DWIDTH 9 0
BBX 8 10 0 0
BITMAP
3C
42
42
3C
42
81
81
81
42
3C
ENDCHAR
STARTCHAR nine
ENCODING 57
SWIDTH 562 0
DWIDTH 9 0
BBX 8 10 0 0
BITMAP
3C
42
81
81
81
43
3D
02
02
0C
ENDCHAR
STARTCHAR colon
ENCODING 58
SWIDTH 125 0
DWIDTH 2 0
BBX 1 6 0 1
BITMAP
80
00
00
00
00
80
ENDCHAR
STARTCHAR semicolon
ENCODING 59
SWIDTH 187 0
DWIDTH 3 0
BBX 2 7 0 0
BITMAP
40
00
00
00
40
40
80
ENDCHAR
STARTCHAR less
ENCODING 60
SWIDTH 437 0
DWIDTH 7 0
BBX 6 6 0 1
BITMAP
0C
30
C0
C0
30
0C
ENDCHAR
STARTCHAR equal
ENCODING 61
SWIDTH 437 0
DWIDTH 7 0
BBX 6 4 0 2
BITMAP
FC
00
00
FC
ENDCHAR
STARTCHAR greater
ENCODING 62
SWIDTH 437 0
DWIDTH 7 0
BBX 6 6 0 1
BITMAP
C0
30
0C
0C
30
C0
ENDCHAR
STARTCHAR question
ENCODING 63
SWIDTH 562 0
DWIDTH 9 0
BBX 8 10 0 0
BITMAP
3C
42
81
81
02
04
08
08
00
08
ENDCHAR
STARTCHAR at
ENCODING 64
SWIDTH 625 0
DWIDTH 10 0
BBX 9 10 0 0
BITMAP
3E00
4100
8080
8C80
9280
9280
8F00
8000
4000
3E00
ENDCHAR
STARTCHAR A
ENCODING 65
SWIDTH 562 0
DWIDTH 9 0
BBX 8 10 0 0
BITMAP
3C
42
81
81
FF
81
81
81
81
81
ENDCHAR
STARTCHAR B
ENCODING 66
SWIDTH 562 0
DWIDTH 9 0
BBX 8 10 0 0
BITMAP
78
84
84
FC
82
81
81
81
82
FC
ENDCHAR
STARTCHAR C
ENCODING 67
SWIDTH 562 0
DWIDTH 9 0
BBX 8 10 0 0
BITMAP
3E
41
80
80
80
80
80
80
41
3E
ENDCHAR
STARTCHAR D
ENCODING 68
SWIDTH 562 0
DWIDTH 9 0
BBX 8 10 0 0
BITMAP
7C
82
81
81
81
81
81
81
82
FC
ENDCHAR
STARTCHAR E
ENCODING 69
SWIDTH 437 0
DWIDTH 7 0
BBX 6 10 0 0
BITMAP
3C
40
80
80
F8
80
80
80
40
3C
ENDCHAR
STARTCHAR F
ENCODING 70
SWIDTH 437 0
DWIDTH 7 0
BBX 6 10 0 0
BITMAP
3C
40
80
80
F8
80
80
80
80
80
ENDCHAR
STARTCHAR G
ENCODING 71
SWIDTH 625 0
DWIDTH 10 0
BBX 9 10 0 0
BITMAP
3E00
4100
8000
8000
8000
8780
8080
8080
4100
3E00
ENDCHAR
STARTCHAR H
ENCODING 72
SWIDTH 562 0
DWIDTH 9 0
BBX 8 10 0 0
BITMAP
81
81
81
81
FF
81
81
81
81
81
ENDCHAR
STARTCHAR I
ENCODING 73
SWIDTH 125 0
DWIDTH 2 0
BBX 1 10 0 0
BITMAP
80
80
80
80
80
80
80
80
80
80
ENDCHAR
STARTCHAR J
ENCODING 74
SWIDTH 250 0
DWIDTH 4 0
BBX 3 11 0 -1
BITMAP
E0
20
20
20
20
20
20
20
20
40
80
ENDCHAR
STARTCHAR K
ENCODING 75
SWIDTH 500 0
DWIDTH 8 0
BBX 7 10 0 0
BITMAP
84
84
84
88
F8
84
82
82
82
82
ENDCHAR
STARTCHAR L
ENCODING 76
SWIDTH 312 0
DWIDTH 5 0
BBX 4 10 0 0
BITMAP
80
80
80
80
80
80
80
80
40
30
ENDCHAR
STARTCHAR M
ENCODING 77
SWIDTH 750 0
DWIDTH 12 0
BBX 11 10 0 0
BITMAP
3180
4A40
8420
8420
8420
8420
8420
8420
8420
8420
ENDCHAR
STARTCHAR N
ENCODING 78
SWIDTH 562 0
DWIDTH 9 0
BBX 8 10 0 0
BITMAP
3C
42
81
81
81
81
81
81
81
81
ENDCHAR
STARTCHAR O
ENCODING 79
SWIDTH 625 0
DWIDTH 10 0
BBX 9 10 0 0
BITMAP
3E00
4100
8080
8080
8080
8080
8080
8080
4100
3E00
ENDCHAR
STARTCHAR P
ENCODING 80
SWIDTH 562 0
DWIDTH 9 0
BBX 8 10 0 0
BITMAP
3C
42
81
81
81
81
C2
BC
80
80
ENDCHAR
STARTCHAR Q
ENCODING 81
SWIDTH 625 0
DWIDTH 10 0
BBX 9 12 0 -2
BITMAP
3E00
4100
8080
8080
8080
8080
8080
8080
4100
3E00
0200
0180
ENDCHAR
STARTCHAR R
ENCODING 82
SWIDTH 562 0
DWIDTH 9 0
BBX 8 10 0 0
BITMAP
3C
42
81
81
81
81
C2
BE
81
81
ENDCHAR
STARTCHAR S
ENCODING 83
SWIDTH 562 0
DWIDTH 9 0
BBX 8 10 0 0
BITMAP
3C
42
40
40
3C
02
01
81
42
3C
ENDCHAR
STARTCHAR T
ENCODING 84
SWIDTH 500 0
DWIDTH 8 0
BBX 7 10 0 0
BITMAP
FE
10
10
10
10
10
10
10
10
10
ENDCHAR
STARTCHAR U
ENCODING 85
SWIDTH 562 0
DWIDTH 9 0
BBX 8 10 0 0
BITMAP
81
81
81
81
81
81
81
81
42
3C
ENDCHAR
STARTCHAR V
ENCODING 86
SWIDTH 562 0
DWIDTH 9 0
BBX 8 10 0 0
BITMAP
81
81
81
42
42
42
24
24
18
18
ENDCHAR
STARTCHAR W
ENCODING 87
SWIDTH 750 0
DWIDTH 12 0
BBX 11 10 0 0
BITMAP
8420
8420
8420
8420
8420
8420
8420
8420
4A40
3180
ENDCHAR
STARTCHAR X
ENCODING 88
SWIDTH 500 0
DWIDTH 8 0
BBX 7 10 0 0
BITMAP
82
44
28
28
10
10
28
28
44
82
ENDCHAR
STARTCHAR Y
ENCODING 89
SWIDTH 562 0
DWIDTH 9 0
BBX 8 10 0 0
BITMAP
81
81
81
81
81
42
3C
08
08
08
ENDCHAR
STARTCHAR Z
ENCODING 90
SWIDTH 500 0
DWIDTH 8 0
BBX 7 10 0 0
BITMAP
FE
04
04
08
10
10
20
40
40
FE
ENDCHAR
STARTCHAR bracketleft
ENCODING 91
SWIDTH 187 0
DWIDTH 3 0
BBX 2 12 0 -2
BITMAP
C0
80
80
80
80
80
80
80
80
80
80
C0
ENDCHAR
STARTCHAR backslash
ENCODING 92
SWIDTH 250 0
DWIDTH 4 0
BBX 3 10 0 0
BITMAP
80
80
80
40
40
40
40
20
20
20
ENDCHAR
STARTCHAR bracketright
ENCODING 93
SWIDTH 187 0
DWIDTH 3 0
BBX 2 12 0 -2
BITMAP
C0
40
40
40
40
40
40
40
40
40
40
C0
ENDCHAR
STARTCHAR asciicircum
ENCODING 94
SWIDTH 375 0
DWIDTH 6 0
BBX 5 3 0 6
BITMAP
20
50
88
ENDCHAR
STARTCHAR underscore
ENCODING 95
SWIDTH 562 0
DWIDTH 9 0
BBX 8 1 0 -1
BITMAP
FF
ENDCHAR
STARTCHAR grave
ENCODING 96
SWIDTH 187 0
DWIDTH 3 0
BBX 2 3 0 7
BITMAP
80
40
40
ENDCHAR
STARTCHAR a
ENCODING 97
SWIDTH 562 0
DWIDTH 9 0
BBX 8 8 0 0
BITMAP
3C
42
81
81
81
81
41
3F
ENDCHAR
STARTCHAR b
ENCODING 98
SWIDTH 562 0
DWIDTH 9 0
BBX 8 10 0 0
BITMAP
80
80
BC
C2
81
81
81
81
42
3C
ENDCHAR
STARTCHAR c
ENCODING 99
SWIDTH 500 0
DWIDTH 8 0
BBX 7 8 0 0
BITMAP
3C
42
80
80
80
80
42
3C
ENDCHAR
STARTCHAR d
ENCODING 100
SWIDTH 562 0
DWIDTH 9 0
BBX 8 10 0 0
BITMAP
01
01
3D
43
81
81
81
81
42
3C
ENDCHAR
STARTCHAR e
ENCODING 101
SWIDTH 562 0
DWIDTH 9 0
BBX 8 8 0 0
BITMAP
3C
42
84
88
91
A1
42
3C
ENDCHAR
STARTCHAR f
ENCODING 102
SWIDTH 250 0
DWIDTH 4 0
BBX 3 10 0 0
BITMAP
60
80
80
80
E0
80
80
80
80
80
ENDCHAR
STARTCHAR g
ENCODING 103
SWIDTH 562 0
DWIDTH 9 0
BBX 8 11 0 -3
BITMAP
3C
42
81
81
81
81
43
3D
01
02
1C
ENDCHAR
STARTCHAR h
ENCODING 104
SWIDTH 562 0
DWIDTH 9 0
BBX 8 10 0 0
BITMAP
80
80
BC
C2
81
81
81
81
81
81
ENDCHAR
STARTCHAR i
ENCODING 105
SWIDTH 187 0
DWIDTH 3 0
BBX 2 10 0 0
BITMAP
80
00
80
80
80
80
80
80
80
40
ENDCHAR
STARTCHAR j
ENCODING 106
SWIDTH 187 0
DWIDTH 3 0
BBX 2 12 0 -2
BITMAP
40
00
40
40
40
40
40
40
40
40
40
80
ENDCHAR
STARTCHAR k
ENCODING 107
SWIDTH 500 0
DWIDTH 8 0
BBX 7 10 0 0
BITMAP
80
80
84
88
F8
84
82
82
82
82
ENDCHAR
STARTCHAR l
ENCODING 108
SWIDTH 187 0
DWIDTH 3 0
BBX 2 10 0 0
BITMAP
80
80
80
80
80
80
80
80
80
40
ENDCHAR
STARTCHAR m
ENCODING 109
SWIDTH 750 0
DWIDTH 12 0
BBX 11 8 0 0
BITMAP
3180
4A40
8420
8420
8420
8420
8420
8420
ENDCHAR
STARTCHAR n
ENCODING 110
SWIDTH 562 0
DWIDTH 9 0
BBX 8 8 0 0
BITMAP
3C
42
81
81
81
81
81
81
ENDCHAR
STARTCHAR o
ENCODING 111
SWIDTH 562 0
DWIDTH 9 0
BBX 8 8 0 0
BITMAP
3C
42
81
81
81
81
42
3C
ENDCHAR
STARTCHAR p
ENCODING 112
SWIDTH 562 0
DWIDTH 9 0
BBX 8 10 0 -2
BITMAP
3C
42
81
81
81
81
C2
BC
80
80
ENDCHAR
STARTCHAR q
ENCODING 113
SWIDTH 562 0
DWIDTH 9 0
BBX 8 10 0 -2
BITMAP
3C
42
81
81
81
81
43
3D
01
01
ENDCHAR
STARTCHAR r
ENCODING 114
SWIDTH 375 0
DWIDTH 6 0
BBX 5 8 0 0
BITMAP
38
40
80
80
80
80
80
80
ENDCHAR
STARTCHAR s
ENCODING 115
SWIDTH 500 0
DWIDTH 8 0
BBX 7 8 0 0
BITMAP
7C
80
80
7C
02
02
02
FC
ENDCHAR
STARTCHAR t
ENCODING 116
SWIDTH 250 0
DWIDTH 4 0
BBX 3 10 0 0
BITMAP
80
80
E0
80
80
80
80
80
80
60
ENDCHAR
STARTCHAR u
ENCODING 117
SWIDTH 562 0
DWIDTH 9 0
BBX 8 8 0 0
BITMAP
81
81
81
81
81
81
42
3C
ENDCHAR
STARTCHAR v
ENCODING 118
SWIDTH 562 0
DWIDTH 9 0
BBX 8 8 0 0
BITMAP
81
81
42
42
24
24
18
18
ENDCHAR
STARTCHAR w
ENCODING 119
SWIDTH 750 0
DWIDTH 12 0
BBX 11 8 0 0
BITMAP
8420
8420
8420
8420
8420
8420
4A40
3180
ENDCHAR
STARTCHAR x
ENCODING 120
SWIDTH 500 0
DWIDTH 8 0
BBX 7 8 0 0
BITMAP
82
44
28
10
10
28
44
82
ENDCHAR
STARTCHAR y
ENCODING 121
SWIDTH 562 0
DWIDTH 9 0
BBX 8 11 0 -3
BITMAP
81
81
81
81
81
81
43
3D
01
02
1C
ENDCHAR
STARTCHAR z
ENCODING 122
SWIDTH 500 0
DWIDTH 8 0
BBX 7 8 0 0
BITMAP
FE
04
08
10
20
40
80
FE
ENDCHAR
STARTCHAR braceleft
ENCODING 123
SWIDTH 312 0
DWIDTH 5 0
BBX 5 12 -1 -2
BITMAP
18
20
20
20
20
C0
20
20
20
20
20
18
ENDCHAR
STARTCHAR bar
ENCODING 124
SWIDTH 125 0
DWIDTH 2 0
BBX 1 12 0 -2
BITMAP
80
80
80
80
80
80
80
80
80
80
80
80
ENDCHAR
STARTCHAR braceright
ENCODING 125
SWIDTH 312 0
DWIDTH 5 0
BBX 4 12 0 -2
BITMAP
80
40
40
40
40
30
40
40
40
40
40
80
ENDCHAR
STARTCHAR asciitilde
ENCODING 126
SWIDTH 437 0
DWIDTH 7 0
BBX 6 2 0 3
BITMAP
64
98
ENDCHAR
ENDFONT
